<svg id="Layer_1" data-name="Layer 1" xmlns="http://www.w3.org/2000/svg" viewBox="0 0 116.65 116.65"><defs><style>.cls-1{fill:#fff;}</style></defs><title>medium</title><path class="cls-1" d="M69.89,74.12c1.92,1.66,3.63,4.91,3.63,9.9,0,7.15-.06,12.92-.06,14.68a2.52,2.52,0,0,0,2.7,2.66H44.21a2.54,2.54,0,0,0,2.74-2.66c0-1.27,0-5.49-.07-10-14.87,3.24-18-6.3-18-6.3-2.43-6.18-5.94-7.83-5.94-7.83-4.85-3.32.37-3.25.37-3.25,5.36.38,8.19,5.51,8.19,5.51C36.26,85,44,82.68,47.05,81.31a11.36,11.36,0,0,1,3.39-7.14c-11.87-1.35-24.35-5.94-24.35-26.42A20.63,20.63,0,0,1,31.6,33.4c-.56-1.35-2.39-6.79.51-14.15,0,0,4.49-1.43,14.7,5.49a50.54,50.54,0,0,1,26.78,0c10.2-6.92,14.69-5.49,14.69-5.49,2.9,7.37,1.08,12.8.52,14.15a20.62,20.62,0,0,1,5.5,14.34C94.3,68.28,81.8,72.8,69.89,74.12Z"/></svg>