<svg id="Layer_1" data-name="Layer 1" xmlns="http://www.w3.org/2000/svg" viewBox="0 0 116.65 116.65"><defs><style>.cls-1{fill:#fff;}</style></defs><title>iconsTransparent</title><path id="Shape" class="cls-1" d="M27.52,40.37a3.28,3.28,0,0,0-1.07-2.76l-7.9-9.51V26.67H43.08L62,68.23,78.68,26.67h23.37v1.42L95.3,34.57a2,2,0,0,0-.75,1.89V84a2,2,0,0,0,.75,1.89l6.59,6.47V93.8H68.74V92.38l6.83-6.63c.67-.67.67-.87.67-1.89V45.42l-19,48.23H54.68L32.58,45.42V77.74a4.46,4.46,0,0,0,1.22,3.71l8.88,10.77v1.42H17.5V92.22l8.88-10.77a4.3,4.3,0,0,0,1.14-3.71Z"/></svg>